# xmcd
#
# Track frame offsets: 
#        150
#        24999
#        64218
#        88132
#        105153
#        117526
#        178660
#
# Disc length: 2706 seconds
#
# Revision: 0
# Processed by: cddbd v1.5.1PL0 Copyright (c) Steve Scherf et al.
# Submitted via: ExactAudioCopy v0.95a5
#
DISCID=550a9007
DTITLE=Blues Traveler - 2000-11-18 Pickle Barrel Night Club Killington
DTITLE=, VT
DYEAR=2000
DGENRE=Blues
TTITLE0=Regarding Steven > 
TTITLE1=Use Me 
TTITLE2=Business As Usual > 
TTITLE3=Imagine > 
TTITLE4=Business As Usual
TTITLE5=Whoops 
TTITLE6=Love and Greed
EXTD=
EXTT0=
EXTT1=
EXTT2=
EXTT3=
EXTT4=
EXTT5=
EXTT6=
PLAYORDER=
